<?xml version="1.0" encoding="utf-8"?>
<?xml-stylesheet type="text/xsl" href="rss1.xsl"?>
<rss version="2.0" xmlns:atom="http://www.w3.org/2005/Atom" xmlns:content="http://purl.org/rss/1.0/modules/content/" xmlns:dc="http://purl.org/dc/elements/1.1/" xmlns:media="http://search.yahoo.com/mrss/">
<channel>
 <title>sharemania</title>
 <link>http://www.sharemania.us/</link>
 <atom:link href="http://www.gettyimg.com/" rel="self" type="application/rss+xml" />

 
                <item>
                <title><![CDATA[【SD Live Performances】Girls Aloud - The Greatest Hits Live From Wembley Arena [2006]]]></title>
                <link><![CDATA[https://sharemania.us/threads/girls-aloud-the-greatest-hits-live-from-wembley-arena-2006.283433/]]></link>
                <description><![CDATA[<article>
				<blockquote class="messageText SelectQuoteContainer ugc baseHtml">
					
					<b>Filling Request<br>
<img src="https://images2.imgbox.com/5e/1c/AZizaKLy_o.jpg" class="bbCodeImage LbImage" alt="[​IMG]" data-url="https://images2.imgbox.com/5e/1c/AZizaKLy_o.jpg" style=""> <br>
<br>
Girls Aloud - The Greatest Hits Live From Wembley Arena [2006]<br>
</b><br>



<div class="ToggleTriggerAnchor bbCodeSpoilerContainer">
	<button type="button" class="button bbCodeSpoilerButton ToggleTrigger Tooltip JsOnly" data-target="&gt; .SpoilerTarget"><span>Spoiler: <span class="SpoilerTitle">Media Info</span></span></button>
	<div class="SpoilerTarget bbCodeSpoilerText">

<div class="bbCodeBlock bbCodeCode">
	<div class="type">Code:</div>
	<pre>General
Unique ID                      : 152429341075803545715886058064987722190 (0x72ACD2BFBB998F35C7B46CA247E291CE)
Complete name                  : GA Wembley Arena 2006.mkv
Format                         : Matroska
Format version                 : Version 2
File size                      : 5.80 GiB
Duration                       : 1 h 28 min
Overall bit rate mode          : Variable
Overall bit rate               : 9 399 kb/s
Frame rate                     : 25.000 FPS
Encoded date                   : 2025-06-05 19:17:24 UTC
Writing application            : MakeMKV v1.18.1 win(x64-release)
Writing library                : libmakemkv v1.18.1 (1.3.10/1.5.2) win(x64-release)

Video
ID                             : 1
ID in the original source medi : 224 (0xE0)
Format                         : MPEG Video
Format version                 : Version 2
Format profile                 : Main@Main
Format settings                : CustomMatrix / BVOP
Format settings, BVOP          : Yes
Format settings, Matrix        : Custom
Format settings, GOP           : Variable
Format settings, picture struc : Frame
Codec ID                       : V_MPEG2
Codec ID/Info                  : MPEG 1 or 2 Video
Duration                       : 1 h 28 min
Bit rate mode                  : Variable
Bit rate                       : 7 966 kb/s
Maximum bit rate               : 9 800 kb/s
Width                          : 720 pixels
Height                         : 576 pixels
Display aspect ratio           : 16:9
Frame rate mode                : Constant
Frame rate                     : 25.000 FPS
Standard                       : PAL
Color space                    : YUV
Chroma subsampling             : 4:2:0
Bit depth                      : 8 bits
Scan type                      : Interlaced
Scan order                     : Top Field First
Compression mode               : Lossy
Bits/(Pixel*Frame)             : 0.768
Time code of first frame       : 09:59:59:00
Time code source               : Group of pictures header
GOP, Open/Closed               : Closed
Stream size                    : 4.92 GiB (85%)
Language                       : English
Default                        : No
Forced                         : No
Original source medium         : DVD-Video

Audio #1
ID                             : 2
ID in the original source medi : 189 (0xBD)128 (0x80)
Format                         : AC-3
Format/Info                    : Audio Coding 3
Commercial name                : Dolby Digital
Codec ID                       : A_AC3
Duration                       : 1 h 28 min
Bit rate mode                  : Constant
Bit rate                       : 224 kb/s
Channel(s)                     : 2 channels
Channel layout                 : L R
Sampling rate                  : 48.0 kHz
Frame rate                     : 31.250 FPS (1536 SPF)
Compression mode               : Lossy
Stream size                    : 142 MiB (2%)
Title                          : Stereo
Language                       : English
Service kind                   : Complete Main
Default                        : Yes
Forced                         : No
Original source medium         : DVD-Video
Dialog Normalization           : -27 dB
compr                          : -0.28 dB
dsurmod                        : Not Dolby Surround encoded
dialnorm_Average               : -27 dB
dialnorm_Minimum               : -27 dB
dialnorm_Maximum               : -27 dB

Audio #2
ID                             : 3
ID in the original source medi : 189 (0xBD)129 (0x81)
Format                         : AC-3
Format/Info                    : Audio Coding 3
Commercial name                : Dolby Digital
Codec ID                       : A_AC3
Duration                       : 1 h 28 min
Bit rate mode                  : Constant
Bit rate                       : 448 kb/s
Channel(s)                     : 6 channels
Channel layout                 : L R C LFE Ls Rs
Sampling rate                  : 48.0 kHz
Frame rate                     : 31.250 FPS (1536 SPF)
Compression mode               : Lossy
Stream size                    : 283 MiB (5%)
Title                          : Surround 5.1
Language                       : English
Service kind                   : Complete Main
Default                        : No
Forced                         : No
Original source medium         : DVD-Video
Dialog Normalization           : -27 dB
compr                          : -0.28 dB
cmixlev                        : -3.0 dB
surmixlev                      : -3 dB
dialnorm_Average               : -27 dB
dialnorm_Minimum               : -27 dB
dialnorm_Maximum               : -27 dB

Audio #3
ID                             : 4
ID in the original source medi : 189 (0xBD)138 (0x8A)
Format                         : DTS
Format/Info                    : Digital Theater Systems
Codec ID                       : A_DTS
Duration                       : 1 h 28 min
Bit rate mode                  : Constant
Bit rate                       : 754 kb/s
Channel(s)                     : 6 channels
Channel layout                 : C L R Ls Rs LFE
Sampling rate                  : 48.0 kHz
Frame rate                     : 93.750 FPS (512 SPF)
Bit depth                      : 24 bits
Compression mode               : Lossy
Stream size                    : 477 MiB (8%)
Title                          : Surround 5.1
Language                       : English
Default                        : No
Forced                         : No
Original source medium         : DVD-Video

Menu
00:00:00.000                   : en:Chapter 01
00:02:31.720                   : en:Chapter 02
00:06:57.360                   : en:Chapter 03
00:12:36.000                   : en:Chapter 04
00:18:44.000                   : en:Chapter 05
00:24:40.800                   : en:Chapter 06
00:29:15.200                   : en:Chapter 07
00:33:31.960                   : en:Chapter 08
00:37:36.080                   : en:Chapter 09
00:42:17.840                   : en:Chapter 10
00:46:33.320                   : en:Chapter 11
00:51:05.920                   : en:Chapter 12
01:00:00.040                   : en:Chapter 13
01:03:27.040                   : en:Chapter 14
01:04:11.840                   : en:Chapter 15
01:07:30.840                   : en:Chapter 16
01:11:38.720                   : en:Chapter 17
01:15:37.000                   : en:Chapter 18
01:17:20.480                   : en:Chapter 19
01:22:40.760                   : en:Chapter 20</pre>
</div></div>
</div><br>




<div class="bbCodeBlock bbCodeVfcHH HiddenContent">
	<div class="attribution type">Hidden Content:</div>
	<blockquote>You must reply before you can see the hidden data contained here.</blockquote>
</div>
					<div class="messageTextEndMarker">&nbsp;</div>
				</blockquote>
			</article>]]></description>
                <author><![CDATA[josh31p]]></author>
                </item>

                </channel></rss>